<svg width="21" height="20" viewBox="0 0 21 20" fill="none" xmlns="http://www.w3.org/2000/svg">
<mask id="mask0_266_252" style="mask-type:luminance" maskUnits="userSpaceOnUse" x="0" y="-1" width="21" height="21">
<path fill-rule="evenodd" clip-rule="evenodd" d="M0.5 -0.00012207H20.9725V19.5009H0.5V-0.00012207Z" fill="white"/>
</mask>
<g mask="url(#mask0_266_252)">
<path fill-rule="evenodd" clip-rule="evenodd" d="M2.32396 9.123C3.72596 13.485 9.26496 17.012 10.737 17.885C12.214 17.003 17.793 13.437 19.15 9.127C20.041 6.341 19.214 2.812 15.928 1.753C14.336 1.242 12.479 1.553 11.197 2.545C10.929 2.751 10.557 2.755 10.287 2.551C8.92896 1.53 7.15496 1.231 5.53796 1.753C2.25696 2.811 1.43296 6.34 2.32396 9.123ZM10.738 19.501C10.614 19.501 10.491 19.471 10.379 19.41C10.066 19.239 2.69296 15.175 0.895957 9.581C0.894957 9.581 0.894957 9.58 0.894957 9.58C-0.233043 6.058 1.02296 1.632 5.07796 0.324996C6.98196 -0.291004 9.05696 -0.020004 10.735 1.039C12.361 0.010996 14.521 -0.273004 16.387 0.324996C20.446 1.634 21.706 6.059 20.579 9.58C18.84 15.11 11.413 19.235 11.098 19.408C10.986 19.47 10.862 19.501 10.738 19.501Z" fill="#A2A2A2"/>
</g>
<path fill-rule="evenodd" clip-rule="evenodd" d="M16.6537 7.6249C16.2667 7.6249 15.9387 7.3279 15.9067 6.9359C15.8407 6.1139 15.2907 5.4199 14.5077 5.1669C14.1127 5.0389 13.8967 4.6159 14.0237 4.2229C14.1527 3.8289 14.5717 3.6149 14.9677 3.7389C16.3307 4.1799 17.2857 5.3869 17.4027 6.8139C17.4357 7.2269 17.1287 7.5889 16.7157 7.6219C16.6947 7.6239 16.6747 7.6249 16.6537 7.6249Z" fill="#A2A2A2"/>
</svg>
