<svg width="25" height="36" viewBox="0 0 25 36" fill="none" xmlns="http://www.w3.org/2000/svg">
<rect width="24" height="35" transform="translate(0.5 0.5)" fill="#0D0D0D"/>
<path d="M9.64373 21.2821V18.2152C9.64372 17.4381 10.2757 16.8067 11.0584 16.8018H13.9326C14.7189 16.8018 15.3563 17.4346 15.3563 18.2152V21.2732C15.3562 21.9473 15.904 22.4951 16.5829 22.5H18.5438C19.4596 22.5023 20.3388 22.1428 20.9872 21.5007C21.6356 20.8586 22 19.9868 22 19.0775V10.3658C22 9.63139 21.6721 8.93471 21.1046 8.4635L14.443 3.17427C13.2785 2.24912 11.6154 2.27901 10.4854 3.24538L3.96701 8.4635C3.37274 8.92082 3.01755 9.61956 3 10.3658V19.0686C3 20.9637 4.54738 22.5 6.45617 22.5H8.37229C8.69917 22.5023 9.01349 22.3751 9.24547 22.1464C9.47746 21.9178 9.60793 21.6067 9.60792 21.2821H9.64373Z" fill="#FF941B"/>
<rect x="7.5" y="30.5" width="10" height="5" rx="2.5" fill="#FF941B"/>
</svg>
